<svg width="64" height="71" viewBox="0 0 64 71" fill="none" xmlns="http://www.w3.org/2000/svg">
<g clip-path="url(#clip0_630_18892)">
<path d="M0 71V0H24.1956C28.9318 0 33.2561 0.689673 37.1686 2.06902C41.0811 3.37577 44.2042 5.62628 46.538 8.82055C48.8717 12.0148 50.0386 16.4433 50.0386 22.1058C50.0386 27.3328 48.9404 31.6523 46.7439 35.0644C44.616 38.4039 41.7332 40.9085 38.0952 42.5782L53.3333 71H36.3449L23.4749 45.4095H15.1351V71H0ZM15.1351 32.6687H22.9601C26.9412 32.6687 29.9614 31.7975 32.0206 30.0552C34.1484 28.2403 35.2124 25.5905 35.2124 22.1058C35.2124 18.6212 34.1484 16.1892 32.0206 14.8098C29.9614 13.4305 26.9412 12.7408 22.9601 12.7408H15.1351V32.6687Z" fill="white"/>
<path d="M37.658 71V54.3932H21.3333V45.0068H37.658V28.4H47.6754V45.0068H64V54.3932H47.6754V71H37.658Z" fill="black" style="mix-blend-mode:hard-light"/>
</g>
<defs>
<clipPath id="clip0_630_18892">
<rect width="64" height="71" fill="white"/>
</clipPath>
</defs>
</svg>
